<svg width="97" height="97" viewBox="0 0 97 97" fill="none" xmlns="http://www.w3.org/2000/svg">
<ellipse cx="48.5" cy="48.5" rx="44.5" ry="45.5" fill="#8C8C8C"/>
<path d="M48.5 0C75.243 0 97 21.757 97 48.5C97 75.243 75.243 97 48.5 97C21.757 97 0 75.243 0 48.5C0 21.757 21.757 0 48.5 0ZM48.5 91.3164C72.1091 91.3164 91.3164 72.1091 91.3164 48.5C91.3164 24.8909 72.1091 5.68359 48.5 5.68359C24.8909 5.68359 5.68359 24.8909 5.68359 48.5C5.68359 72.1091 24.8909 91.3164 48.5 91.3164Z" fill="black"/>
<path d="M48.5 51.1523C37.5312 51.1523 28.6074 42.2285 28.6074 31.2598C28.6074 20.291 37.5312 11.3672 48.5 11.3672C59.4688 11.3672 68.3926 20.291 68.3926 31.2598C68.3926 42.2285 59.4688 51.1523 48.5 51.1523Z" fill="black"/>
<path d="M16.5489 63.5507C20.3253 59.2833 25.7563 56.8359 31.4492 56.8359H65.5508C71.2437 56.8359 76.6747 59.2833 80.4511 63.5507L81.7981 65.073L80.7929 66.8396C74.1967 78.4317 61.8227 85.6328 48.5 85.6328C35.1773 85.6328 22.8033 78.4317 16.207 66.8394L15.2017 65.0728L16.5489 63.5507Z" fill="black"/>
</svg>
